<svg width="40" height="40" viewBox="0 0 40 40" fill="none" xmlns="http://www.w3.org/2000/svg">
<path d="M34.1422 5.85781C30.3647 2.08031 25.3422 0 20 0C14.6578 0 9.63531 2.08031 5.85781 5.85781C2.08031 9.63531 0 14.6578 0 20C0 25.3422 2.08039 30.3646 5.85781 34.1422C9.63524 37.9198 14.6578 40 20 40C25.3422 40 30.3647 37.9197 34.1422 34.1422C37.9197 30.3647 40 25.3422 40 20C40 14.6578 37.9196 9.63539 34.1422 5.85781Z" fill="#333333"/>
<path d="M9.60682 28.2094C17.4009 11.2094 25.9009 26.7094 31.6068 12.2094" stroke="#008DE8" stroke-linecap="round" stroke-linejoin="round"/>
<path d="M13.6068 34.2094C21.4009 17.2094 29.9009 32.7094 35.6068 18.2094" stroke="#008DE8" stroke-linecap="round" stroke-linejoin="round"/>
<path d="M5.60682 22.2094C13.4009 5.2094 21.9009 20.7094 27.6068 6.20938" stroke="#008DE8" stroke-linecap="round" stroke-linejoin="round"/>
</svg>
